<svg width="259" height="42" viewBox="0 0 259 42" fill="none" xmlns="http://www.w3.org/2000/svg">
<path d="M0.28125 0.999999H8.625L17.4375 22.5H17.8125L26.625 0.999999H34.9688V33H28.4063V12.1719H28.1406L19.8594 32.8437H15.3906L7.10938 12.0937H6.84375V33H0.28125V0.999999ZM51.2617 33.4688C48.8346 33.4688 46.7357 32.9531 44.9648 31.9219C43.2044 30.8802 41.8451 29.4323 40.8867 27.5781C39.9284 25.7135 39.4492 23.5521 39.4492 21.0937C39.4492 18.6146 39.9284 16.4479 40.8867 14.5937C41.8451 12.7292 43.2044 11.2812 44.9648 10.25C46.7357 9.20833 48.8346 8.6875 51.2617 8.6875C53.6888 8.6875 55.7826 9.20833 57.543 10.25C59.3138 11.2812 60.6784 12.7292 61.6367 14.5937C62.5951 16.4479 63.0742 18.6146 63.0742 21.0937C63.0742 23.5521 62.5951 25.7135 61.6367 27.5781C60.6784 29.4323 59.3138 30.8802 57.543 31.9219C55.7826 32.9531 53.6888 33.4688 51.2617 33.4688ZM51.293 28.3125C52.3971 28.3125 53.319 28 54.0586 27.375C54.7982 26.7396 55.3555 25.875 55.7305 24.7812C56.1159 23.6875 56.3086 22.4427 56.3086 21.0469C56.3086 19.651 56.1159 18.4063 55.7305 17.3125C55.3555 16.2187 54.7982 15.3542 54.0586 14.7187C53.319 14.0833 52.3971 13.7656 51.293 13.7656C50.1784 13.7656 49.2409 14.0833 48.4805 14.7187C47.7305 15.3542 47.1628 16.2187 46.7773 17.3125C46.4023 18.4063 46.2148 19.651 46.2148 21.0469C46.2148 22.4427 46.4023 23.6875 46.7773 24.7812C47.1628 25.875 47.7305 26.7396 48.4805 27.375C49.2409 28 50.1784 28.3125 51.293 28.3125ZM73.7617 24.2187L82.4023 9H88.9648V33H82.6211V17.7344L74.0117 33H67.4023V9H73.7617V24.2187ZM81.2617 0.624998H85.9023C85.8919 2.52083 85.1888 4.04687 83.793 5.20312C82.4076 6.35937 80.5326 6.9375 78.168 6.9375C75.793 6.9375 73.9128 6.35937 72.5273 5.20312C71.1419 4.04687 70.4492 2.52083 70.4492 0.624998H75.0586C75.0482 1.34375 75.2773 1.98958 75.7461 2.5625C76.2253 3.13542 77.0326 3.42187 78.168 3.42187C79.2721 3.42187 80.0638 3.14062 80.543 2.57812C81.0221 2.01562 81.2617 1.36458 81.2617 0.624998Z" fill="#FF5722"/>
<path d="M94.4258 0.999999H102.77L111.582 22.5H111.957L120.77 0.999999H129.113V33H122.551V12.1719H122.285L114.004 32.8437H109.535L101.254 12.0937H100.988V33H94.4258V0.999999ZM141.406 33.4531C139.875 33.4531 138.51 33.1875 137.313 32.6562C136.115 32.1146 135.167 31.3177 134.469 30.2656C133.781 29.2031 133.438 27.8802 133.438 26.2969C133.438 24.9635 133.682 23.8437 134.172 22.9375C134.661 22.0313 135.328 21.3021 136.172 20.75C137.016 20.1979 137.974 19.7812 139.047 19.5C140.13 19.2187 141.266 19.0208 142.453 18.9062C143.849 18.7604 144.974 18.625 145.828 18.5C146.682 18.3646 147.302 18.1667 147.688 17.9062C148.073 17.6458 148.266 17.2604 148.266 16.75V16.6562C148.266 15.6667 147.953 14.901 147.328 14.3594C146.714 13.8177 145.839 13.5469 144.703 13.5469C143.505 13.5469 142.552 13.8125 141.844 14.3437C141.135 14.8646 140.667 15.5208 140.438 16.3125L134.281 15.8125C134.594 14.3542 135.208 13.0937 136.125 12.0312C137.042 10.9583 138.224 10.1354 139.672 9.5625C141.13 8.97917 142.818 8.6875 144.734 8.6875C146.068 8.6875 147.344 8.84375 148.563 9.15625C149.792 9.46875 150.88 9.95312 151.828 10.6094C152.786 11.2656 153.542 12.1094 154.094 13.1406C154.646 14.1615 154.922 15.3854 154.922 16.8125V33H148.609V29.6719H148.422C148.036 30.4219 147.521 31.0833 146.875 31.6562C146.229 32.2187 145.453 32.6615 144.547 32.9844C143.641 33.2969 142.594 33.4531 141.406 33.4531ZM143.313 28.8594C144.292 28.8594 145.156 28.6667 145.906 28.2812C146.656 27.8854 147.245 27.3542 147.672 26.6875C148.099 26.0208 148.313 25.2656 148.313 24.4219V21.875C148.104 22.0104 147.818 22.1354 147.453 22.25C147.099 22.3542 146.698 22.4531 146.25 22.5469C145.802 22.6302 145.354 22.7083 144.906 22.7812C144.458 22.8437 144.052 22.901 143.688 22.9531C142.906 23.0677 142.224 23.25 141.641 23.5C141.057 23.75 140.604 24.0885 140.281 24.5156C139.958 24.9323 139.797 25.4531 139.797 26.0781C139.797 26.9844 140.125 27.6771 140.781 28.1562C141.448 28.625 142.292 28.8594 143.313 28.8594ZM160.086 42V9H166.648V13.0312H166.945C167.237 12.3854 167.659 11.7292 168.211 11.0625C168.773 10.3854 169.503 9.82292 170.398 9.375C171.305 8.91667 172.43 8.6875 173.773 8.6875C175.523 8.6875 177.138 9.14583 178.617 10.0625C180.096 10.9687 181.279 12.3385 182.164 14.1719C183.049 15.9948 183.492 18.2812 183.492 21.0312C183.492 23.7083 183.06 25.9687 182.195 27.8125C181.341 29.6458 180.174 31.0365 178.695 31.9844C177.227 32.9219 175.581 33.3906 173.758 33.3906C172.466 33.3906 171.367 33.1771 170.461 32.75C169.565 32.3229 168.831 31.7865 168.258 31.1406C167.685 30.4844 167.247 29.8229 166.945 29.1562H166.742V42H160.086ZM166.602 21C166.602 22.4271 166.799 23.6719 167.195 24.7344C167.591 25.7969 168.164 26.625 168.914 27.2187C169.664 27.8021 170.576 28.0937 171.648 28.0937C172.732 28.0937 173.648 27.7969 174.398 27.2031C175.148 26.599 175.716 25.7656 176.102 24.7031C176.497 23.6302 176.695 22.3958 176.695 21C176.695 19.6146 176.503 18.3958 176.117 17.3437C175.732 16.2917 175.164 15.4687 174.414 14.875C173.664 14.2812 172.742 13.9844 171.648 13.9844C170.565 13.9844 169.648 14.2708 168.898 14.8437C168.159 15.4167 167.591 16.2292 167.195 17.2812C166.799 18.3333 166.602 19.5729 166.602 21ZM187.93 33V9H194.586V18.3125H196.461L202.992 9H210.805L202.32 20.9062L210.898 33H202.992L197.07 24.4844H194.586V33H187.93ZM223.66 33.4688C221.191 33.4688 219.066 32.9688 217.285 31.9688C215.514 30.9583 214.15 29.5312 213.191 27.6875C212.233 25.8333 211.754 23.6406 211.754 21.1094C211.754 18.6406 212.233 16.474 213.191 14.6094C214.15 12.7448 215.499 11.2917 217.238 10.25C218.988 9.20833 221.04 8.6875 223.395 8.6875C224.978 8.6875 226.452 8.94271 227.816 9.45312C229.191 9.95312 230.389 10.7083 231.41 11.7187C232.441 12.7292 233.243 14 233.816 15.5312C234.389 17.0521 234.676 18.8333 234.676 20.875V22.7031H214.41V18.5781H228.41C228.41 17.6198 228.202 16.7708 227.785 16.0313C227.368 15.2917 226.79 14.7135 226.051 14.2969C225.322 13.8698 224.473 13.6562 223.504 13.6562C222.493 13.6562 221.598 13.8906 220.816 14.3594C220.046 14.8177 219.441 15.4375 219.004 16.2187C218.566 16.9896 218.342 17.849 218.332 18.7969V22.7187C218.332 23.9062 218.551 24.9323 218.988 25.7969C219.436 26.6615 220.066 27.3281 220.879 27.7969C221.691 28.2656 222.655 28.5 223.77 28.5C224.509 28.5 225.186 28.3958 225.801 28.1875C226.415 27.9792 226.941 27.6667 227.379 27.25C227.816 26.8333 228.15 26.3229 228.379 25.7188L234.535 26.125C234.223 27.6042 233.582 28.8958 232.613 30C231.655 31.0937 230.415 31.9479 228.895 32.5625C227.384 33.1667 225.639 33.4688 223.66 33.4688ZM237.168 14.2344V9H258.918V14.2344H251.184V33H244.84V14.2344H237.168Z" fill="black"/>
</svg>
